#!OML:ASF E:\VariousWalksJay\Project 1\Capture day 1\Session 1\Actor2.ASF
:FULLY-SPECIFIED
:DEGREES
802
root -1.36072 13.5231 22.3251 7.97328 -46.4619 1.18189
lowerback 37.2394 -1.35998 0.589159
upperback 19.1932 -2.92328 -4.13556
thorax 2.40216 -1.61878 -3.80009
lowerneck 2.81685 2.78606 5.50749
upperneck -27.0662 3.93741 -1.61656
head -8.7502 1.30275 -1.78688
rclavicle 7.87187e-014 -6.52014e-014
rhumerus 6.44281 30.8213 -69.3896
rradius 112.244
rwrist -12.2847
rhand -30.2595 -22.2709
rfingers 7.12502
rthumb -3.56804 -52.2208
lclavicle 7.87187e-014 -6.52014e-014
lhumerus 68.2976 2.25977 34.9653
lradius 64.9162
lwrist 55.0199
lhand -23.776 13.4055
lfingers 7.12502
lthumb 2.69368 43.3682
rfemur -72.1607 3.58586 31.7483
rtibia 31.2946
rfoot -21.875 -2.85357
rtoes -30.7411
lfemur -55.2272 8.97611 -33.9936
ltibia 90.1462
lfoot -34.7162 4.30639
ltoes -12.3302
803
root -1.41061 13.4692 22.3971 7.92496 -46.4955 1.33144
lowerback 37.2347 -1.32772 0.563051
upperback 19.2396 -2.89671 -4.18234
thorax 2.4549 -1.60399 -3.84604
lowerneck 2.84712 2.76708 5.51955
upperneck -27.1613 3.9155 -1.61449
head -8.78991 1.28752 -1.7888
rclavicle -7.95139e-016 -4.92986e-014
rhumerus 7.52981 30.8529 -68.9435
rradius 112.275
rwrist -12.7182
rhand -30.274 -22.6706
rfingers 7.12502
rthumb -3.58211 -52.6202
lclavicle -7.95139e-016 -4.92986e-014
lhumerus 68.786 2.87011 34.9829
lradius 64.3617
lwrist 55.0258
lhand -23.5393 13.4131
lfingers 7.12502
lthumb 2.92226 43.3728
rfemur -71.9751 3.52295 31.9384
rtibia 30.5069
rfoot -21.796 -2.51006
rtoes -30.4585
lfemur -55.4047 9.21283 -34.1991
ltibia 91.0292
lfoot -34.7838 4.0054
ltoes -12.8776
804
root -1.46199 13.4208 22.4709 7.88007 -46.5287 1.48488
lowerback 37.2217 -1.29496 0.535309
upperback 19.2812 -2.86913 -4.22202
thorax 2.50545 -1.58917 -3.88394
lowerneck 2.87313 2.74842 5.53293
upperneck -27.2524 3.88998 -1.62782
head -8.8271 1.27217 -1.79575
rclavicle -2.14687e-014 9.38264e-014
rhumerus 8.52389 30.8991 -68.5347
rradius 112.258
rwrist -13.0918
rhand -30.3138 -23.0162
rfingers 7.12502
rthumb -3.62053 -52.9652
lclavicle -2.14687e-014 9.38264e-014
lhumerus 69.2197 3.42158 35.0176
lradius 63.855
lwrist 55.0179
lhand -23.3066 13.4098
lfingers 7.12502
lthumb 3.14696 43.3664
rfemur -71.8139 3.51475 31.9973
rtibia 29.9155
rfoot -21.7188 -2.23534
rtoes -30.1409
lfemur -55.5398 9.4697 -34.3995
ltibia 91.8469
lfoot -34.8214 3.67271
ltoes -13.4519
805
root -1.51501 13.378 22.5466 7.84395 -46.5576 1.63949
lowerback 37.1991 -1.26448 0.508845
upperback 19.3167 -2.84283 -4.25566
thorax 2.55266 -1.57511 -3.91573
lowerneck 2.89587 2.73019 5.54828
upperneck -27.3414 3.8622 -1.6522
head -8.86267 1.25675 -1.80651
rclavicle -5.24792e-014 -1.23246e-014
rhumerus 9.42393 30.9597 -68.1682
rradius 112.197
rwrist -13.4023
rhand -30.3744 -23.3112
rfingers 7.12502
rthumb -3.67898 -53.2591
lclavicle -5.24792e-014 -1.23246e-014
lhumerus 69.5979 3.91321 35.0622
lradius 63.397
lwrist 55.0026
lhand -23.0814 13.3943
lfingers 7.12502
lthumb 3.3645 43.3475
rfemur -71.6694 3.56226 31.9232
rtibia 29.4741
rfoot -21.6475 -2.03873
rtoes -29.8156
lfemur -55.6319 9.74466 -34.593
ltibia 92.5943
lfoot -34.8329 3.31378
ltoes -14.047
806
root -1.56984 13.3408 22.6242 7.82396 -46.578 1.79161
lowerback 37.1644 -1.23935 0.48706
upperback 19.3448 -2.82021 -4.2845
thorax 2.59522 -1.56257 -3.94373
lowerneck 2.9163 2.71283 5.5648
upperneck -27.4289 3.83426 -1.68157
head -8.89722 1.2417 -1.81909
rclavicle -2.70347e-014 1.11319e-014
rhumerus 10.2272 31.0351 -67.8507
rradius 112.097
rwrist -13.6498
rhand -30.4506 -23.5589
rfingers 7.12502
rthumb -3.75258 -53.5056
lclavicle -2.70347e-014 1.11319e-014
lhumerus 69.9191 4.34356 35.1096
lradius 62.9894
lwrist 54.982
lhand -22.8681 13.367
lfingers 7.12502
lthumb 3.57047 43.3168
rfemur -71.5366 3.66237 31.7236
rtibia 29.1398
rfoot -21.5832 -1.92521
rtoes -29.5062
lfemur -55.6833 10.0349 -34.7771
ltibia 93.2678
lfoot -34.823 2.93172
ltoes -14.6463
807
root -1.62669 13.3094 22.7036 7.82901 -46.5862 1.93675
lowerback 37.1138 -1.22274 0.473463
upperback 19.3637 -2.80378 -4.31007
thorax 2.63215 -1.55235 -3.97064
lowerneck 2.93361 2.69732 5.58165
upperneck -27.5142 3.80903 -1.70946
head -8.93039 1.2278 -1.83133
rclavicle -2.46493e-014 6.36111e-015
rhumerus 10.9296 31.1263 -67.5908
rradius 111.964
rwrist -13.8366
rhand -30.5368 -23.7629
rfingers 7.12502
rthumb -3.83582 -53.7082
lclavicle -2.46493e-014 6.36111e-015
lhumerus 70.1811 4.71194 35.1523
lradius 62.634
lwrist 54.9554
lhand -22.6712 13.3289
lfingers 7.12502
lthumb 3.76061 43.2755
rfemur -71.4139 3.80891 31.4143
rtibia 28.8787
rfoot -21.5222 -1.89489
rtoes -29.227
lfemur -55.6991 10.3367 -34.9487
ltibia 93.8655
lfoot -34.7965 2.52563
ltoes -15.2254
808
root -1.68572 13.2836 22.7849 7.86723 -46.5798 2.07113
lowerback 37.0432 -1.21694 0.471065
upperback 19.3719 -2.79518 -4.33362
thorax 2.66273 -1.54486 -3.99888
lowerneck 2.94617 2.68423 5.59787
upperneck -27.5949 3.78848 -1.73042
head -8.96119 1.2156 -1.84129
rclavicle 1.43125e-014 -9.58142e-014
rhumerus 11.5256 31.2334 -67.3965
rradius 111.807
rwrist -13.9666
rhand -30.6281 -23.927
rfingers 7.12502
rthumb -3.92397 -53.8706
lclavicle 1.43125e-014 -9.58142e-014
lhumerus 70.3819 5.01719 35.1844
lradius 62.3331
lwrist 54.9205
lhand -22.4954 13.2824
lfingers 7.12502
lthumb 3.93039 43.2259
rfemur -71.3032 3.99318 31.0162
rtibia 28.6695
rfoot -21.4564 -1.94168
rtoes -28.9802
lfemur -55.685 10.6457 -35.1054
ltibia 94.3872
lfoot -34.7578 2.09535
ltoes -15.7678
809
root -1.74707 13.2632 22.8682 7.94524 -46.5574 2.19223
lowerback 36.9483 -1.22317 0.481283
upperback 19.3684 -2.79523 -4.35546
thorax 2.68688 -1.54035 -4.02935
lowerneck 2.95182 2.67409 5.61231
upperneck -27.6684 3.77395 -1.74085
head -8.9883 1.20555 -1.84756
rclavicle 2.06736e-014 2.42517e-014
rhumerus 12.009 31.3567 -67.2739
rradius 111.636
rwrist -14.0443
rhand -30.7204 -24.0533
rfingers 7.12502
rthumb -4.01313 -53.9953
lclavicle 2.06736e-014 2.42517e-014
lhumerus 70.5192 5.25867 35.2023
lradius 62.0893
lwrist 54.8748
lhand -22.3447 13.2304
lfingers 7.12502
lthumb 4.07596 43.1712
rfemur -71.2093 4.20496 30.5519
rtibia 28.5039
rfoot -21.374 -2.05488
rtoes -28.7587
lfemur -55.6465 10.9566 -35.2451
ltibia 94.8339
lfoot -34.7101 1.63918
ltoes -16.2592
810
root -1.81076 13.2481 22.9536 8.06665 -46.5181 2.29974
lowerback 36.8257 -1.24237 0.505263
upperback 19.3524 -2.80467 -4.37599
thorax 2.70501 -1.53901 -4.06294
lowerneck 2.94852 2.66693 5.6247
upperneck -27.7325 3.76563 -1.73963
head -9.01064 1.19772 -1.84962
rclavicle 1.19271e-014 7.67309e-014
rhumerus 12.3732 31.4964 -67.2276
rradius 111.461
rwrist -14.0735
rhand -30.8112 -24.1427
rfingers 7.12502
rthumb -4.1008 -54.083
lclavicle 1.19271e-014 7.67309e-014
lhumerus 70.5914 5.43647 35.2039
lradius 61.9057
lwrist 54.8185
lhand -22.2219 13.1763
lfingers 7.12502
lthumb 4.19451 43.1148
rfemur -71.1386 4.43374 30.0416
rtibia 28.3851
rfoot -21.2605 -2.22106
rtoes -28.547
lfemur -55.5883 11.262 -35.3673
ltibia 95.2071
lfoot -34.6548 1.15606
ltoes -16.6963
811
root -1.87679 13.2382 23.0412 8.23046 -46.4635 2.39627
lowerback 36.6737 -1.27323 0.540911
upperback 19.3241 -2.82261 -4.39489
thorax 2.71804 -1.54062 -4.09859
lowerneck 2.93554 2.66242 5.63394
upperneck -27.787 3.76266 -1.72731
head -9.02801 1.19186 -1.84739
rclavicle 2.62396e-014 3.33958e-014
rhumerus 12.6133 31.6514 -67.2579
rradius 111.291
rwrist -14.0583
rhand -30.8993 -24.1956
rfingers 7.12502
rthumb -4.18592 -54.1342
lclavicle 2.62396e-014 3.33958e-014
lhumerus 70.5978 5.55121 35.1895
lradius 61.785
lwrist 54.7546
lhand -22.1284 13.1228
lfingers 7.12502
lthumb 4.28483 43.0594
rfemur -71.0964 4.67139 29.5004
rtibia 28.3241
rfoot -21.1007 -2.42549
rtoes -28.3217
lfemur -55.5119 11.5559 -35.473
ltibia 95.5085
lfoot -34.5918 0.64564
ltoes -17.0803
812
root -1.94507 13.2332 23.1312 8.43353 -46.3946 2.48476
lowerback 36.4921 -1.31485 0.587318
upperback 19.2842 -2.84842 -4.41141
thorax 2.72706 -1.54502 -4.1353
lowerneck 2.91357 2.65973 5.63964
upperneck -27.8338 3.76305 -1.70712
head -9.04118 1.18735 -1.8418
rclavicle -3.18055e-014 -1.03368e-014
rhumerus 12.7262 31.8202 -67.3622
rradius 111.133
rwrist -14.002
rhand -30.9849 -24.213
rfingers 7.12502
rthumb -4.26856 -54.15
lclavicle -3.18055e-014 -1.03368e-014
lhumerus 70.5384 5.6039 35.162
lradius 61.7298
lwrist 54.6892
lhand -22.0619 13.0716
lfingers 7.12502
lthumb 4.34901 43.007
rfemur -71.0862 4.91161 28.9377
rtibia 28.3351
rfoot -20.8827 -2.65696
rtoes -28.0593
lfemur -55.4166 11.831 -35.563
ltibia 95.7395
lfoot -34.5194 0.110529
ltoes -17.4213
